# Tiled2Unity generated file. Do not modify by hand.
# Wavefront file for 'untitled_mesh_0001.obj'

# Vertices (Count = 800)
v 0 -1728 0
v -32 -1728 0
v -32 -1696 0
v 0 -1696 0
v -32 -1728 0
v -64 -1728 0
v -64 -1696 0
v -32 -1696 0
v -64 -1728 0
v -96 -1728 0
v -96 -1696 0
v -64 -1696 0
v -96 -1728 0
v -128 -1728 0
v -128 -1696 0
v -96 -1696 0
v -128 -1728 0
v -160 -1728 0
v -160 -1696 0
v -128 -1696 0
v -160 -1728 0
v -192 -1728 0
v -192 -1696 0
v -160 -1696 0
v -192 -1728 0
v -224 -1728 0
v -224 -1696 0
v -192 -1696 0
v -224 -1728 0
v -256 -1728 0
v -256 -1696 0
v -224 -1696 0
v -256 -1728 0
v -288 -1728 0
v -288 -1696 0
v -256 -1696 0
v -288 -1728 0
v -320 -1728 0
v -320 -1696 0
v -288 -1696 0
v -320 -1728 0
v -352 -1728 0
v -352 -1696 0
v -320 -1696 0
v -352 -1728 0
v -384 -1728 0
v -384 -1696 0
v -352 -1696 0
v -384 -1728 0
v -416 -1728 0
v -416 -1696 0
v -384 -1696 0
v -416 -1728 0
v -448 -1728 0
v -448 -1696 0
v -416 -1696 0
v -448 -1728 0
v -480 -1728 0
v -480 -1696 0
v -448 -1696 0
v -480 -1728 0
v -512 -1728 0
v -512 -1696 0
v -480 -1696 0
v -512 -1728 0
v -544 -1728 0
v -544 -1696 0
v -512 -1696 0
v -544 -1728 0
v -576 -1728 0
v -576 -1696 0
v -544 -1696 0
v -576 -1728 0
v -608 -1728 0
v -608 -1696 0
v -576 -1696 0
v -608 -1728 0
v -640 -1728 0
v -640 -1696 0
v -608 -1696 0
v -640 -1728 0
v -672 -1728 0
v -672 -1696 0
v -640 -1696 0
v -672 -1728 0
v -704 -1728 0
v -704 -1696 0
v -672 -1696 0
v -704 -1728 0
v -736 -1728 0
v -736 -1696 0
v -704 -1696 0
v -736 -1728 0
v -768 -1728 0
v -768 -1696 0
v -736 -1696 0
v -768 -1728 0
v -800 -1728 0
v -800 -1696 0
v -768 -1696 0
v -800 -1728 0
v -832 -1728 0
v -832 -1696 0
v -800 -1696 0
v -832 -1728 0
v -864 -1728 0
v -864 -1696 0
v -832 -1696 0
v -864 -1728 0
v -896 -1728 0
v -896 -1696 0
v -864 -1696 0
v -896 -1728 0
v -928 -1728 0
v -928 -1696 0
v -896 -1696 0
v -928 -1728 0
v -960 -1728 0
v -960 -1696 0
v -928 -1696 0
v -960 -1728 0
v -992 -1728 0
v -992 -1696 0
v -960 -1696 0
v -992 -1728 0
v -1024 -1728 0
v -1024 -1696 0
v -992 -1696 0
v -1024 -1728 0
v -1056 -1728 0
v -1056 -1696 0
v -1024 -1696 0
v -1056 -1728 0
v -1088 -1728 0
v -1088 -1696 0
v -1056 -1696 0
v -1088 -1728 0
v -1120 -1728 0
v -1120 -1696 0
v -1088 -1696 0
v -1120 -1728 0
v -1152 -1728 0
v -1152 -1696 0
v -1120 -1696 0
v -1152 -1728 0
v -1184 -1728 0
v -1184 -1696 0
v -1152 -1696 0
v -1184 -1728 0
v -1216 -1728 0
v -1216 -1696 0
v -1184 -1696 0
v -1216 -1728 0
v -1248 -1728 0
v -1248 -1696 0
v -1216 -1696 0
v -1248 -1728 0
v -1280 -1728 0
v -1280 -1696 0
v -1248 -1696 0
v -1280 -1728 0
v -1312 -1728 0
v -1312 -1696 0
v -1280 -1696 0
v -1312 -1728 0
v -1344 -1728 0
v -1344 -1696 0
v -1312 -1696 0
v -1344 -1728 0
v -1376 -1728 0
v -1376 -1696 0
v -1344 -1696 0
v -1376 -1728 0
v -1408 -1728 0
v -1408 -1696 0
v -1376 -1696 0
v -1408 -1728 0
v -1440 -1728 0
v -1440 -1696 0
v -1408 -1696 0
v -1440 -1728 0
v -1472 -1728 0
v -1472 -1696 0
v -1440 -1696 0
v -1472 -1728 0
v -1504 -1728 0
v -1504 -1696 0
v -1472 -1696 0
v -1504 -1728 0
v -1536 -1728 0
v -1536 -1696 0
v -1504 -1696 0
v -1536 -1728 0
v -1568 -1728 0
v -1568 -1696 0
v -1536 -1696 0
v -1568 -1728 0
v -1600 -1728 0
v -1600 -1696 0
v -1568 -1696 0
v -1600 -1728 0
v -1632 -1728 0
v -1632 -1696 0
v -1600 -1696 0
v -1632 -1728 0
v -1664 -1728 0
v -1664 -1696 0
v -1632 -1696 0
v -1664 -1728 0
v -1696 -1728 0
v -1696 -1696 0
v -1664 -1696 0
v -1696 -1728 0
v -1728 -1728 0
v -1728 -1696 0
v -1696 -1696 0
v -1728 -1728 0
v -1760 -1728 0
v -1760 -1696 0
v -1728 -1696 0
v -1760 -1728 0
v -1792 -1728 0
v -1792 -1696 0
v -1760 -1696 0
v -1792 -1728 0
v -1824 -1728 0
v -1824 -1696 0
v -1792 -1696 0
v -1824 -1728 0
v -1856 -1728 0
v -1856 -1696 0
v -1824 -1696 0
v -1856 -1728 0
v -1888 -1728 0
v -1888 -1696 0
v -1856 -1696 0
v -1888 -1728 0
v -1920 -1728 0
v -1920 -1696 0
v -1888 -1696 0
v -1920 -1728 0
v -1952 -1728 0
v -1952 -1696 0
v -1920 -1696 0
v -1952 -1728 0
v -1984 -1728 0
v -1984 -1696 0
v -1952 -1696 0
v -1984 -1728 0
v -2016 -1728 0
v -2016 -1696 0
v -1984 -1696 0
v -2016 -1728 0
v -2048 -1728 0
v -2048 -1696 0
v -2016 -1696 0
v -2048 -1728 0
v -2080 -1728 0
v -2080 -1696 0
v -2048 -1696 0
v -2080 -1728 0
v -2112 -1728 0
v -2112 -1696 0
v -2080 -1696 0
v -2112 -1728 0
v -2144 -1728 0
v -2144 -1696 0
v -2112 -1696 0
v -2144 -1728 0
v -2176 -1728 0
v -2176 -1696 0
v -2144 -1696 0
v -2176 -1728 0
v -2208 -1728 0
v -2208 -1696 0
v -2176 -1696 0
v -2208 -1728 0
v -2240 -1728 0
v -2240 -1696 0
v -2208 -1696 0
v -2240 -1728 0
v -2272 -1728 0
v -2272 -1696 0
v -2240 -1696 0
v -2272 -1728 0
v -2304 -1728 0
v -2304 -1696 0
v -2272 -1696 0
v -2304 -1728 0
v -2336 -1728 0
v -2336 -1696 0
v -2304 -1696 0
v -2336 -1728 0
v -2368 -1728 0
v -2368 -1696 0
v -2336 -1696 0
v -2368 -1728 0
v -2400 -1728 0
v -2400 -1696 0
v -2368 -1696 0
v -2400 -1728 0
v -2432 -1728 0
v -2432 -1696 0
v -2400 -1696 0
v -2432 -1728 0
v -2464 -1728 0
v -2464 -1696 0
v -2432 -1696 0
v -2464 -1728 0
v -2496 -1728 0
v -2496 -1696 0
v -2464 -1696 0
v -2496 -1728 0
v -2528 -1728 0
v -2528 -1696 0
v -2496 -1696 0
v -2528 -1728 0
v -2560 -1728 0
v -2560 -1696 0
v -2528 -1696 0
v -2560 -1728 0
v -2592 -1728 0
v -2592 -1696 0
v -2560 -1696 0
v -2592 -1728 0
v -2624 -1728 0
v -2624 -1696 0
v -2592 -1696 0
v -2624 -1728 0
v -2656 -1728 0
v -2656 -1696 0
v -2624 -1696 0
v -2656 -1728 0
v -2688 -1728 0
v -2688 -1696 0
v -2656 -1696 0
v -2688 -1728 0
v -2720 -1728 0
v -2720 -1696 0
v -2688 -1696 0
v -2720 -1728 0
v -2752 -1728 0
v -2752 -1696 0
v -2720 -1696 0
v -2752 -1728 0
v -2784 -1728 0
v -2784 -1696 0
v -2752 -1696 0
v -2784 -1728 0
v -2816 -1728 0
v -2816 -1696 0
v -2784 -1696 0
v -2816 -1728 0
v -2848 -1728 0
v -2848 -1696 0
v -2816 -1696 0
v -2848 -1728 0
v -2880 -1728 0
v -2880 -1696 0
v -2848 -1696 0
v -2880 -1728 0
v -2912 -1728 0
v -2912 -1696 0
v -2880 -1696 0
v -2912 -1728 0
v -2944 -1728 0
v -2944 -1696 0
v -2912 -1696 0
v -2944 -1728 0
v -2976 -1728 0
v -2976 -1696 0
v -2944 -1696 0
v -2976 -1728 0
v -3008 -1728 0
v -3008 -1696 0
v -2976 -1696 0
v -3008 -1728 0
v -3040 -1728 0
v -3040 -1696 0
v -3008 -1696 0
v -3040 -1728 0
v -3072 -1728 0
v -3072 -1696 0
v -3040 -1696 0
v -3072 -1728 0
v -3104 -1728 0
v -3104 -1696 0
v -3072 -1696 0
v -3104 -1728 0
v -3136 -1728 0
v -3136 -1696 0
v -3104 -1696 0
v -3136 -1728 0
v -3168 -1728 0
v -3168 -1696 0
v -3136 -1696 0
v -3168 -1728 0
v -3200 -1728 0
v -3200 -1696 0
v -3168 -1696 0
v 0 -1760 0
v -32 -1760 0
v -32 -1728 0
v 0 -1728 0
v -32 -1760 0
v -64 -1760 0
v -64 -1728 0
v -32 -1728 0
v -64 -1760 0
v -96 -1760 0
v -96 -1728 0
v -64 -1728 0
v -96 -1760 0
v -128 -1760 0
v -128 -1728 0
v -96 -1728 0
v -128 -1760 0
v -160 -1760 0
v -160 -1728 0
v -128 -1728 0
v -160 -1760 0
v -192 -1760 0
v -192 -1728 0
v -160 -1728 0
v -192 -1760 0
v -224 -1760 0
v -224 -1728 0
v -192 -1728 0
v -224 -1760 0
v -256 -1760 0
v -256 -1728 0
v -224 -1728 0
v -256 -1760 0
v -288 -1760 0
v -288 -1728 0
v -256 -1728 0
v -288 -1760 0
v -320 -1760 0
v -320 -1728 0
v -288 -1728 0
v -320 -1760 0
v -352 -1760 0
v -352 -1728 0
v -320 -1728 0
v -352 -1760 0
v -384 -1760 0
v -384 -1728 0
v -352 -1728 0
v -384 -1760 0
v -416 -1760 0
v -416 -1728 0
v -384 -1728 0
v -416 -1760 0
v -448 -1760 0
v -448 -1728 0
v -416 -1728 0
v -448 -1760 0
v -480 -1760 0
v -480 -1728 0
v -448 -1728 0
v -480 -1760 0
v -512 -1760 0
v -512 -1728 0
v -480 -1728 0
v -512 -1760 0
v -544 -1760 0
v -544 -1728 0
v -512 -1728 0
v -544 -1760 0
v -576 -1760 0
v -576 -1728 0
v -544 -1728 0
v -576 -1760 0
v -608 -1760 0
v -608 -1728 0
v -576 -1728 0
v -608 -1760 0
v -640 -1760 0
v -640 -1728 0
v -608 -1728 0
v -640 -1760 0
v -672 -1760 0
v -672 -1728 0
v -640 -1728 0
v -672 -1760 0
v -704 -1760 0
v -704 -1728 0
v -672 -1728 0
v -704 -1760 0
v -736 -1760 0
v -736 -1728 0
v -704 -1728 0
v -736 -1760 0
v -768 -1760 0
v -768 -1728 0
v -736 -1728 0
v -768 -1760 0
v -800 -1760 0
v -800 -1728 0
v -768 -1728 0
v -800 -1760 0
v -832 -1760 0
v -832 -1728 0
v -800 -1728 0
v -832 -1760 0
v -864 -1760 0
v -864 -1728 0
v -832 -1728 0
v -864 -1760 0
v -896 -1760 0
v -896 -1728 0
v -864 -1728 0
v -896 -1760 0
v -928 -1760 0
v -928 -1728 0
v -896 -1728 0
v -928 -1760 0
v -960 -1760 0
v -960 -1728 0
v -928 -1728 0
v -960 -1760 0
v -992 -1760 0
v -992 -1728 0
v -960 -1728 0
v -992 -1760 0
v -1024 -1760 0
v -1024 -1728 0
v -992 -1728 0
v -1024 -1760 0
v -1056 -1760 0
v -1056 -1728 0
v -1024 -1728 0
v -1056 -1760 0
v -1088 -1760 0
v -1088 -1728 0
v -1056 -1728 0
v -1088 -1760 0
v -1120 -1760 0
v -1120 -1728 0
v -1088 -1728 0
v -1120 -1760 0
v -1152 -1760 0
v -1152 -1728 0
v -1120 -1728 0
v -1152 -1760 0
v -1184 -1760 0
v -1184 -1728 0
v -1152 -1728 0
v -1184 -1760 0
v -1216 -1760 0
v -1216 -1728 0
v -1184 -1728 0
v -1216 -1760 0
v -1248 -1760 0
v -1248 -1728 0
v -1216 -1728 0
v -1248 -1760 0
v -1280 -1760 0
v -1280 -1728 0
v -1248 -1728 0
v -1280 -1760 0
v -1312 -1760 0
v -1312 -1728 0
v -1280 -1728 0
v -1312 -1760 0
v -1344 -1760 0
v -1344 -1728 0
v -1312 -1728 0
v -1344 -1760 0
v -1376 -1760 0
v -1376 -1728 0
v -1344 -1728 0
v -1376 -1760 0
v -1408 -1760 0
v -1408 -1728 0
v -1376 -1728 0
v -1408 -1760 0
v -1440 -1760 0
v -1440 -1728 0
v -1408 -1728 0
v -1440 -1760 0
v -1472 -1760 0
v -1472 -1728 0
v -1440 -1728 0
v -1472 -1760 0
v -1504 -1760 0
v -1504 -1728 0
v -1472 -1728 0
v -1504 -1760 0
v -1536 -1760 0
v -1536 -1728 0
v -1504 -1728 0
v -1536 -1760 0
v -1568 -1760 0
v -1568 -1728 0
v -1536 -1728 0
v -1568 -1760 0
v -1600 -1760 0
v -1600 -1728 0
v -1568 -1728 0
v -1600 -1760 0
v -1632 -1760 0
v -1632 -1728 0
v -1600 -1728 0
v -1632 -1760 0
v -1664 -1760 0
v -1664 -1728 0
v -1632 -1728 0
v -1664 -1760 0
v -1696 -1760 0
v -1696 -1728 0
v -1664 -1728 0
v -1696 -1760 0
v -1728 -1760 0
v -1728 -1728 0
v -1696 -1728 0
v -1728 -1760 0
v -1760 -1760 0
v -1760 -1728 0
v -1728 -1728 0
v -1760 -1760 0
v -1792 -1760 0
v -1792 -1728 0
v -1760 -1728 0
v -1792 -1760 0
v -1824 -1760 0
v -1824 -1728 0
v -1792 -1728 0
v -1824 -1760 0
v -1856 -1760 0
v -1856 -1728 0
v -1824 -1728 0
v -1856 -1760 0
v -1888 -1760 0
v -1888 -1728 0
v -1856 -1728 0
v -1888 -1760 0
v -1920 -1760 0
v -1920 -1728 0
v -1888 -1728 0
v -1920 -1760 0
v -1952 -1760 0
v -1952 -1728 0
v -1920 -1728 0
v -1952 -1760 0
v -1984 -1760 0
v -1984 -1728 0
v -1952 -1728 0
v -1984 -1760 0
v -2016 -1760 0
v -2016 -1728 0
v -1984 -1728 0
v -2016 -1760 0
v -2048 -1760 0
v -2048 -1728 0
v -2016 -1728 0
v -2048 -1760 0
v -2080 -1760 0
v -2080 -1728 0
v -2048 -1728 0
v -2080 -1760 0
v -2112 -1760 0
v -2112 -1728 0
v -2080 -1728 0
v -2112 -1760 0
v -2144 -1760 0
v -2144 -1728 0
v -2112 -1728 0
v -2144 -1760 0
v -2176 -1760 0
v -2176 -1728 0
v -2144 -1728 0
v -2176 -1760 0
v -2208 -1760 0
v -2208 -1728 0
v -2176 -1728 0
v -2208 -1760 0
v -2240 -1760 0
v -2240 -1728 0
v -2208 -1728 0
v -2240 -1760 0
v -2272 -1760 0
v -2272 -1728 0
v -2240 -1728 0
v -2272 -1760 0
v -2304 -1760 0
v -2304 -1728 0
v -2272 -1728 0
v -2304 -1760 0
v -2336 -1760 0
v -2336 -1728 0
v -2304 -1728 0
v -2336 -1760 0
v -2368 -1760 0
v -2368 -1728 0
v -2336 -1728 0
v -2368 -1760 0
v -2400 -1760 0
v -2400 -1728 0
v -2368 -1728 0
v -2400 -1760 0
v -2432 -1760 0
v -2432 -1728 0
v -2400 -1728 0
v -2432 -1760 0
v -2464 -1760 0
v -2464 -1728 0
v -2432 -1728 0
v -2464 -1760 0
v -2496 -1760 0
v -2496 -1728 0
v -2464 -1728 0
v -2496 -1760 0
v -2528 -1760 0
v -2528 -1728 0
v -2496 -1728 0
v -2528 -1760 0
v -2560 -1760 0
v -2560 -1728 0
v -2528 -1728 0
v -2560 -1760 0
v -2592 -1760 0
v -2592 -1728 0
v -2560 -1728 0
v -2592 -1760 0
v -2624 -1760 0
v -2624 -1728 0
v -2592 -1728 0
v -2624 -1760 0
v -2656 -1760 0
v -2656 -1728 0
v -2624 -1728 0
v -2656 -1760 0
v -2688 -1760 0
v -2688 -1728 0
v -2656 -1728 0
v -2688 -1760 0
v -2720 -1760 0
v -2720 -1728 0
v -2688 -1728 0
v -2720 -1760 0
v -2752 -1760 0
v -2752 -1728 0
v -2720 -1728 0
v -2752 -1760 0
v -2784 -1760 0
v -2784 -1728 0
v -2752 -1728 0
v -2784 -1760 0
v -2816 -1760 0
v -2816 -1728 0
v -2784 -1728 0
v -2816 -1760 0
v -2848 -1760 0
v -2848 -1728 0
v -2816 -1728 0
v -2848 -1760 0
v -2880 -1760 0
v -2880 -1728 0
v -2848 -1728 0
v -2880 -1760 0
v -2912 -1760 0
v -2912 -1728 0
v -2880 -1728 0
v -2912 -1760 0
v -2944 -1760 0
v -2944 -1728 0
v -2912 -1728 0
v -2944 -1760 0
v -2976 -1760 0
v -2976 -1728 0
v -2944 -1728 0
v -2976 -1760 0
v -3008 -1760 0
v -3008 -1728 0
v -2976 -1728 0
v -3008 -1760 0
v -3040 -1760 0
v -3040 -1728 0
v -3008 -1728 0
v -3040 -1760 0
v -3072 -1760 0
v -3072 -1728 0
v -3040 -1728 0
v -3072 -1760 0
v -3104 -1760 0
v -3104 -1728 0
v -3072 -1728 0
v -3104 -1760 0
v -3136 -1760 0
v -3136 -1728 0
v -3104 -1728 0
v -3136 -1760 0
v -3168 -1760 0
v -3168 -1728 0
v -3136 -1728 0
v -3168 -1760 0
v -3200 -1760 0
v -3200 -1728 0
v -3168 -1728 0

# Texture cooridinates (Count = 9)
vt 0 0.5733333
vt 0.4266667 0.5733333
vt 0.4266667 1
vt 0 1
vt 0.8533334 0.5733333
vt 0.8533334 1
vt 0 0.1466666
vt 0.4266667 0.1466666
vt 0.8533334 0.1466666

# Normal
vn 0 0 -1

# Mesh description
g untitled_mesh_0001

# Faces
f 1/1/1 2/2/1 3/3/1 4/4/1
f 5/2/1 6/5/1 7/6/1 8/3/1
f 9/1/1 10/2/1 11/3/1 12/4/1
f 13/2/1 14/5/1 15/6/1 16/3/1
f 17/1/1 18/2/1 19/3/1 20/4/1
f 21/2/1 22/5/1 23/6/1 24/3/1
f 25/1/1 26/2/1 27/3/1 28/4/1
f 29/2/1 30/5/1 31/6/1 32/3/1
f 33/1/1 34/2/1 35/3/1 36/4/1
f 37/2/1 38/5/1 39/6/1 40/3/1
f 41/1/1 42/2/1 43/3/1 44/4/1
f 45/2/1 46/5/1 47/6/1 48/3/1
f 49/1/1 50/2/1 51/3/1 52/4/1
f 53/2/1 54/5/1 55/6/1 56/3/1
f 57/1/1 58/2/1 59/3/1 60/4/1
f 61/2/1 62/5/1 63/6/1 64/3/1
f 65/1/1 66/2/1 67/3/1 68/4/1
f 69/2/1 70/5/1 71/6/1 72/3/1
f 73/1/1 74/2/1 75/3/1 76/4/1
f 77/2/1 78/5/1 79/6/1 80/3/1
f 81/1/1 82/2/1 83/3/1 84/4/1
f 85/2/1 86/5/1 87/6/1 88/3/1
f 89/1/1 90/2/1 91/3/1 92/4/1
f 93/2/1 94/5/1 95/6/1 96/3/1
f 97/1/1 98/2/1 99/3/1 100/4/1
f 101/2/1 102/5/1 103/6/1 104/3/1
f 105/1/1 106/2/1 107/3/1 108/4/1
f 109/2/1 110/5/1 111/6/1 112/3/1
f 113/1/1 114/2/1 115/3/1 116/4/1
f 117/2/1 118/5/1 119/6/1 120/3/1
f 121/1/1 122/2/1 123/3/1 124/4/1
f 125/2/1 126/5/1 127/6/1 128/3/1
f 129/1/1 130/2/1 131/3/1 132/4/1
f 133/2/1 134/5/1 135/6/1 136/3/1
f 137/1/1 138/2/1 139/3/1 140/4/1
f 141/2/1 142/5/1 143/6/1 144/3/1
f 145/1/1 146/2/1 147/3/1 148/4/1
f 149/2/1 150/5/1 151/6/1 152/3/1
f 153/1/1 154/2/1 155/3/1 156/4/1
f 157/2/1 158/5/1 159/6/1 160/3/1
f 161/1/1 162/2/1 163/3/1 164/4/1
f 165/2/1 166/5/1 167/6/1 168/3/1
f 169/1/1 170/2/1 171/3/1 172/4/1
f 173/2/1 174/5/1 175/6/1 176/3/1
f 177/1/1 178/2/1 179/3/1 180/4/1
f 181/2/1 182/5/1 183/6/1 184/3/1
f 185/1/1 186/2/1 187/3/1 188/4/1
f 189/2/1 190/5/1 191/6/1 192/3/1
f 193/1/1 194/2/1 195/3/1 196/4/1
f 197/2/1 198/5/1 199/6/1 200/3/1
f 201/1/1 202/2/1 203/3/1 204/4/1
f 205/2/1 206/5/1 207/6/1 208/3/1
f 209/1/1 210/2/1 211/3/1 212/4/1
f 213/2/1 214/5/1 215/6/1 216/3/1
f 217/1/1 218/2/1 219/3/1 220/4/1
f 221/2/1 222/5/1 223/6/1 224/3/1
f 225/1/1 226/2/1 227/3/1 228/4/1
f 229/2/1 230/5/1 231/6/1 232/3/1
f 233/1/1 234/2/1 235/3/1 236/4/1
f 237/2/1 238/5/1 239/6/1 240/3/1
f 241/1/1 242/2/1 243/3/1 244/4/1
f 245/2/1 246/5/1 247/6/1 248/3/1
f 249/1/1 250/2/1 251/3/1 252/4/1
f 253/2/1 254/5/1 255/6/1 256/3/1
f 257/1/1 258/2/1 259/3/1 260/4/1
f 261/2/1 262/5/1 263/6/1 264/3/1
f 265/1/1 266/2/1 267/3/1 268/4/1
f 269/2/1 270/5/1 271/6/1 272/3/1
f 273/1/1 274/2/1 275/3/1 276/4/1
f 277/2/1 278/5/1 279/6/1 280/3/1
f 281/1/1 282/2/1 283/3/1 284/4/1
f 285/2/1 286/5/1 287/6/1 288/3/1
f 289/1/1 290/2/1 291/3/1 292/4/1
f 293/2/1 294/5/1 295/6/1 296/3/1
f 297/1/1 298/2/1 299/3/1 300/4/1
f 301/2/1 302/5/1 303/6/1 304/3/1
f 305/1/1 306/2/1 307/3/1 308/4/1
f 309/2/1 310/5/1 311/6/1 312/3/1
f 313/1/1 314/2/1 315/3/1 316/4/1
f 317/2/1 318/5/1 319/6/1 320/3/1
f 321/1/1 322/2/1 323/3/1 324/4/1
f 325/2/1 326/5/1 327/6/1 328/3/1
f 329/1/1 330/2/1 331/3/1 332/4/1
f 333/2/1 334/5/1 335/6/1 336/3/1
f 337/1/1 338/2/1 339/3/1 340/4/1
f 341/2/1 342/5/1 343/6/1 344/3/1
f 345/1/1 346/2/1 347/3/1 348/4/1
f 349/2/1 350/5/1 351/6/1 352/3/1
f 353/1/1 354/2/1 355/3/1 356/4/1
f 357/2/1 358/5/1 359/6/1 360/3/1
f 361/1/1 362/2/1 363/3/1 364/4/1
f 365/2/1 366/5/1 367/6/1 368/3/1
f 369/1/1 370/2/1 371/3/1 372/4/1
f 373/2/1 374/5/1 375/6/1 376/3/1
f 377/1/1 378/2/1 379/3/1 380/4/1
f 381/2/1 382/5/1 383/6/1 384/3/1
f 385/1/1 386/2/1 387/3/1 388/4/1
f 389/2/1 390/5/1 391/6/1 392/3/1
f 393/1/1 394/2/1 395/3/1 396/4/1
f 397/2/1 398/5/1 399/6/1 400/3/1
f 401/7/1 402/8/1 403/2/1 404/1/1
f 405/8/1 406/9/1 407/5/1 408/2/1
f 409/7/1 410/8/1 411/2/1 412/1/1
f 413/8/1 414/9/1 415/5/1 416/2/1
f 417/7/1 418/8/1 419/2/1 420/1/1
f 421/8/1 422/9/1 423/5/1 424/2/1
f 425/7/1 426/8/1 427/2/1 428/1/1
f 429/8/1 430/9/1 431/5/1 432/2/1
f 433/7/1 434/8/1 435/2/1 436/1/1
f 437/8/1 438/9/1 439/5/1 440/2/1
f 441/7/1 442/8/1 443/2/1 444/1/1
f 445/8/1 446/9/1 447/5/1 448/2/1
f 449/7/1 450/8/1 451/2/1 452/1/1
f 453/8/1 454/9/1 455/5/1 456/2/1
f 457/7/1 458/8/1 459/2/1 460/1/1
f 461/8/1 462/9/1 463/5/1 464/2/1
f 465/7/1 466/8/1 467/2/1 468/1/1
f 469/8/1 470/9/1 471/5/1 472/2/1
f 473/7/1 474/8/1 475/2/1 476/1/1
f 477/8/1 478/9/1 479/5/1 480/2/1
f 481/7/1 482/8/1 483/2/1 484/1/1
f 485/8/1 486/9/1 487/5/1 488/2/1
f 489/7/1 490/8/1 491/2/1 492/1/1
f 493/8/1 494/9/1 495/5/1 496/2/1
f 497/7/1 498/8/1 499/2/1 500/1/1
f 501/8/1 502/9/1 503/5/1 504/2/1
f 505/7/1 506/8/1 507/2/1 508/1/1
f 509/8/1 510/9/1 511/5/1 512/2/1
f 513/7/1 514/8/1 515/2/1 516/1/1
f 517/8/1 518/9/1 519/5/1 520/2/1
f 521/7/1 522/8/1 523/2/1 524/1/1
f 525/8/1 526/9/1 527/5/1 528/2/1
f 529/7/1 530/8/1 531/2/1 532/1/1
f 533/8/1 534/9/1 535/5/1 536/2/1
f 537/7/1 538/8/1 539/2/1 540/1/1
f 541/8/1 542/9/1 543/5/1 544/2/1
f 545/7/1 546/8/1 547/2/1 548/1/1
f 549/8/1 550/9/1 551/5/1 552/2/1
f 553/7/1 554/8/1 555/2/1 556/1/1
f 557/8/1 558/9/1 559/5/1 560/2/1
f 561/7/1 562/8/1 563/2/1 564/1/1
f 565/8/1 566/9/1 567/5/1 568/2/1
f 569/7/1 570/8/1 571/2/1 572/1/1
f 573/8/1 574/9/1 575/5/1 576/2/1
f 577/7/1 578/8/1 579/2/1 580/1/1
f 581/8/1 582/9/1 583/5/1 584/2/1
f 585/7/1 586/8/1 587/2/1 588/1/1
f 589/8/1 590/9/1 591/5/1 592/2/1
f 593/7/1 594/8/1 595/2/1 596/1/1
f 597/8/1 598/9/1 599/5/1 600/2/1
f 601/7/1 602/8/1 603/2/1 604/1/1
f 605/8/1 606/9/1 607/5/1 608/2/1
f 609/7/1 610/8/1 611/2/1 612/1/1
f 613/8/1 614/9/1 615/5/1 616/2/1
f 617/7/1 618/8/1 619/2/1 620/1/1
f 621/8/1 622/9/1 623/5/1 624/2/1
f 625/7/1 626/8/1 627/2/1 628/1/1
f 629/8/1 630/9/1 631/5/1 632/2/1
f 633/7/1 634/8/1 635/2/1 636/1/1
f 637/8/1 638/9/1 639/5/1 640/2/1
f 641/7/1 642/8/1 643/2/1 644/1/1
f 645/8/1 646/9/1 647/5/1 648/2/1
f 649/7/1 650/8/1 651/2/1 652/1/1
f 653/8/1 654/9/1 655/5/1 656/2/1
f 657/7/1 658/8/1 659/2/1 660/1/1
f 661/8/1 662/9/1 663/5/1 664/2/1
f 665/7/1 666/8/1 667/2/1 668/1/1
f 669/8/1 670/9/1 671/5/1 672/2/1
f 673/7/1 674/8/1 675/2/1 676/1/1
f 677/8/1 678/9/1 679/5/1 680/2/1
f 681/7/1 682/8/1 683/2/1 684/1/1
f 685/8/1 686/9/1 687/5/1 688/2/1
f 689/7/1 690/8/1 691/2/1 692/1/1
f 693/8/1 694/9/1 695/5/1 696/2/1
f 697/7/1 698/8/1 699/2/1 700/1/1
f 701/8/1 702/9/1 703/5/1 704/2/1
f 705/7/1 706/8/1 707/2/1 708/1/1
f 709/8/1 710/9/1 711/5/1 712/2/1
f 713/7/1 714/8/1 715/2/1 716/1/1
f 717/8/1 718/9/1 719/5/1 720/2/1
f 721/7/1 722/8/1 723/2/1 724/1/1
f 725/8/1 726/9/1 727/5/1 728/2/1
f 729/7/1 730/8/1 731/2/1 732/1/1
f 733/8/1 734/9/1 735/5/1 736/2/1
f 737/7/1 738/8/1 739/2/1 740/1/1
f 741/8/1 742/9/1 743/5/1 744/2/1
f 745/7/1 746/8/1 747/2/1 748/1/1
f 749/8/1 750/9/1 751/5/1 752/2/1
f 753/7/1 754/8/1 755/2/1 756/1/1
f 757/8/1 758/9/1 759/5/1 760/2/1
f 761/7/1 762/8/1 763/2/1 764/1/1
f 765/8/1 766/9/1 767/5/1 768/2/1
f 769/7/1 770/8/1 771/2/1 772/1/1
f 773/8/1 774/9/1 775/5/1 776/2/1
f 777/7/1 778/8/1 779/2/1 780/1/1
f 781/8/1 782/9/1 783/5/1 784/2/1
f 785/7/1 786/8/1 787/2/1 788/1/1
f 789/8/1 790/9/1 791/5/1 792/2/1
f 793/7/1 794/8/1 795/2/1 796/1/1
f 797/8/1 798/9/1 799/5/1 800/2/1

